# xmcd
#
# Track frame offsets:
#	150
#	26435
#	58313
#	75568
#	101923
#	124283
#	151830
#	179410
#	200060
#	227300
#	244538
#	270188
#	294318
#
# Disc length: 4352 seconds
# Revision: 1
# Processed by: cddbd v1.5.2PL0 Copyright (c) Steve Scherf et al.
# Submitted via: dBpowerAMP V12.0
#
DISCID=a810fe0d
DTITLE=Various Artist - Long Live The Blues!
DYEAR=1999
DGENRE=Blues
TTITLE0=Jimmy Johnson - That Will Never Do
TTITLE1=Big Daddy Kinsey - It's Over
TTITLE2=Robben Ford - Start It Up
TTITLE3=Junior Wells - Oh, Pretty Woman
TTITLE4=Larry Carner - Another Bad Day
TTITLE5=Michael Hill - Let's Talk About The Weather
TTITLE6=Sugar Blue - I Just Got To Know
TTITLE7=Kenny Neal - I Put My Trust In You
TTITLE8=Billy Brance - If heartaches Were Nickels
TTITLE9=James Cotton - You Didn't Think About That
TTITLE10=Lucky Peterson - Bad Condition
TTITLE11=Son Seals - Friday Again
TTITLE12=Charlie Brown - News All Over Town
EXTD=
EXTT0=
EXTT1=
EXTT2=
EXTT3=
EXTT4=
EXTT5=
EXTT6=
EXTT7=
EXTT8=
EXTT9=
EXTT10=
EXTT11=
EXTT12=
PLAYORDER=
